<svg aria-hidden="true" style="position:absolute;width:0;height:0;overflow:hidden" xmlns="http://www.w3.org/2000/svg"><defs>
<symbol id="icon-logo" viewBox="0 0 127 32">
    <path fill="#fff" style="fill:var(--color1, #fff)" d="M31.36 16.32C31.36 24.98 24.48 32 16 32S.64 24.98.64 16.32 7.52.64 16 .64s15.36 7.02 15.36 15.68z"/> 
    <path fill="#d41443" style="fill:var(--color2, #d41443)" d="M11.85.56C4.45 2.81 0 8.64 0 16c0 6.03 3.1 11.28 8.18 13.9 2.64 1.35 3.03.4.58-1.47-1.74-1.4-2.06-2.05-2.06-4.42 0-1.66-.39-3-.97-3.52-1.16-.96-1.29-3.46-.13-4.36.45-.38.9-1.66.97-2.82.32-4.23 4.9-8.2 9.47-8.2s9.14 3.98 9.46 8.2c.07 1.16.52 2.44.97 2.82 1.16.9 1.03 3.4-.13 4.36-.58.51-.97 1.86-.97 3.52 0 2.37-.32 3.01-2.06 4.42-2.7 2.12-1.93 2.89 1.1 1.03 4.25-2.63 7.4-8.33 7.4-13.4 0-10.12-10.56-18.32-19.96-15.5z"/>
    <path fill="#d41443" style="fill:var(--color2, #d41443)" d="M12.69 8c-1.16.5-2.13 1.15-2.13 1.53 0 .7 3.48 1.99 5.47 1.99s5.48-1.28 5.48-1.99c0-.77-4-2.5-5.6-2.5-.65.07-2.13.45-3.22.96zM45.85 11.33c-.97.25-1.16 1.09-1.16 5.7v5.38h4.57l-.19-5.57c-.2-5.83-.45-6.28-3.22-5.51zM53.39 11.65c-2.13 1.15-2.9 2.56-2.9 5.31 0 3.78 2.06 5.58 5.86 5.32 2.57-.19 2.83-.38 3.02-1.98s.07-1.73-1.93-1.6c-2.06.19-2.12.06-2.12-2.06s.13-2.24 2-2.05c1.54.13 2.12-.12 2.38-1.09.13-.64 0-1.53-.39-1.92-.9-.9-4.25-.9-5.92.07zM61.05 11.71c-.2.51-.26 3.01-.13 5.64l.2 4.74h4.18c3.86 0 4.19-.13 4.38-1.48.2-1.21-.07-1.4-2.06-1.4-1.29 0-2.32-.33-2.32-.65 0-.38.9-.64 1.93-.64 1.48 0 1.93-.25 1.93-1.28s-.45-1.28-1.93-1.28c-1.03 0-1.93-.32-1.93-.64 0-.38.84-.64 1.87-.64 1.8 0 3.02-1.41 2.25-2.63-.58-.96-7.98-.7-8.37.26zM74 11.52c-2.13.83-2.97 2.3-3.03 5-.07 4.6 1.8 6.21 6.63 5.76 1.87-.12 2.19-.44 2.19-1.8 0-1.4-.26-1.6-2.06-1.4-1.55.13-2.13-.06-2.45-1.09-.58-1.99.64-3.59 2.7-3.59 1.23 0 1.87-.38 2-1.21.45-2.05-2.83-3.02-5.99-1.67zM81.91 11.26c-.32.26-.51 2.89-.51 5.83v5.38l2.06-.19c1.6-.12 2.19-.57 2.51-1.8l.39-1.6.51 1.74c.39 1.47.84 1.8 2.51 1.8 2.77 0 3.1-.46 1.94-2.7-.71-1.41-.84-2.11-.33-2.63.84-.83.9-3.65.13-4.87-.64-1.02-8.37-1.85-9.2-.96zm5.28 3.46c0 .7-.25 1.28-.64 1.28-.32 0-.64-.57-.64-1.28s.32-1.28.64-1.28c.39 0 .64.58.64 1.28zM93.44 11.33c-.26.19-.45 2.82-.45 5.76v5.32h4.19c4.05 0 4.18-.06 4.18-1.6 0-1.35-.32-1.6-1.93-1.6-1.03 0-1.93-.32-1.93-.64 0-.39.7-.64 1.6-.64 1.17 0 1.62-.32 1.62-1.29s-.45-1.28-1.61-1.28c-.9 0-1.61-.32-1.61-.64 0-.38.9-.64 1.93-.64 1.61 0 1.93-.25 1.93-1.6 0-1.54-.2-1.6-3.73-1.6-2.06 0-4 .19-4.19.45zM106.45 11.26c-1.16.32-4.12 8.84-3.54 10.25.51 1.29 3.41 1.16 4.18-.19.58-1.09.65-1.09 1.8 0 1.49 1.28 4.7 1.48 4.7.26 0-.39-.64-2.95-1.47-5.58-1.3-4.22-1.68-4.8-3.03-4.93-.9 0-2.06.06-2.64.2zm1.8 5.83c-.19.64-.32.26-.32-.77 0-1.08.13-1.53.32-1.15a4.8 4.8 0 0 1 0 1.92zM115.72 11.33c-.58.19-.83 1.98-.83 5.7v5.38h1.86c1.61 0 1.94-.32 2.2-1.8.25-1.66.25-1.66.76-.31.26.83.9 1.47 1.36 1.47.51 0 1.22-.64 1.54-1.47.52-1.35.58-1.35.58.38.07 1.6.26 1.8 2.06 1.6l2-.19.06-5.32c.13-4.93.07-5.31-1.28-5.63-2.06-.52-3.8.7-4.38 3.07l-.45 2.12-.71-2.25c-.9-3-2.26-3.78-4.77-2.75zM9.02 11.97c-.2.25-.39 1.09-.39 1.92 0 1.47.06 1.47 7.4 1.47s7.41 0 7.41-1.47c0-2.18-.58-2.44-2.64-1.41-2.32 1.22-7.21 1.22-9.53 0-1.03-.51-2-.7-2.25-.51zM7.15 17.67c-1.03 1.09.7 1.54 5.73 1.54h5.4v2.24c0 1.22.33 2.24.65 2.24.39 0 .65-.96.65-2.18 0-2.1.12-2.24 2.57-2.43 1.42-.13 2.58-.51 2.58-.83 0-.7-16.87-1.28-17.58-.58z"/>
    <path fill="#d41443" style="fill:var(--color2, #d41443)" d="M8.63 23.3c0 3.53 1.22 4.24 7.4 4.24s7.41-.7 7.41-4.23c0-1.54-.32-2.18-.97-2.18-.58 0-.96.58-.96 1.54 0 3.59-4.9 3.9-5.6.38-.33-1.86-.52-1.92-3.8-1.92H8.63v2.18zM12.62 30.55c.39 2.05 6.96 1.86 6.96-.13 0-.7-.84-.96-3.6-.96-3.04 0-3.55.2-3.36 1.09z"/>
</symbol>
<symbol id="icon-home" viewBox="0 0 32 32">
    <path fill="#d31342" style="fill:var(--color3, #d31342)" d="M31.6 16.77c.58-.6.52-1.51-.13-2.04L17.17 3.06a1.88 1.88 0 0 0-2.32.02L.5 15.35a1.35 1.35 0 0 0-.07 2.03l.36.35c.6.58 1.56.65 2.15.16l1.08-.9v13.12c0 .8.7 1.45 1.56 1.45h5.59c.86 0 1.56-.65 1.56-1.45v-9.18h7.14v9.18c-.02.8.6 1.45 1.46 1.45h5.93c.86 0 1.56-.65 1.56-1.45V17.18l.66.54c.36.3 1.13.06 1.71-.54l.41-.41z"/>
</symbol>
<symbol id="icon-facebook" viewBox="0 0 32 32">
    <path fill="#fea5bb" style="fill:var(--color4, #fea5bb)" d="M16 32a16 16 0 1 0 0-32 16 16 0 0 0 0 32z"/>
    <path fill="#fff" style="fill:var(--color1, #fff)" d="M20.45 15.98h-2.61v9.62h-3.96v-9.62H12V12.6h1.88v-2.18c0-1.57.74-4.02 4-4.02l2.92.01V9.7h-2.13c-.34 0-.83.18-.83.93v1.98h2.95l-.34 3.38z"/>
</symbol>
<symbol id="icon-telegram" viewBox="0 0 32 32">
    <path fill="#fea5bb" style="fill:var(--color4, #fea5bb)" d="M32 16a16 16 0 1 1-32 0 16 16 0 0 1 32 0z"/>
    <path fill="#fff" style="fill:var(--color1, #fff)" d="m12.87 18.38-.32 4.16c.45 0 .65-.18.89-.4l2.13-1.9 4.41 3.02c.81.42 1.38.2 1.6-.7l2.9-12.67c.25-1.11-.44-1.55-1.23-1.28L6.22 14.7c-1.16.42-1.14 1.02-.2 1.3l4.36 1.26 10.11-5.9c.48-.3.91-.14.56.16l-8.19 6.86z"/>
</symbol>
<symbol id="icon-github" viewBox="0 0 32 32">
    <path fill="#fea5bb" style="fill:var(--color4, #fea5bb)" d="M32 16a16 16 0 1 1-32 0 16 16 0 0 1 32 0z"/>
    <path fill="#fff" style="fill:var(--color1, #fff)" d="M16 6.59A9.45 9.45 0 0 0 6.59 16c0 4.41 3.1 8.42 7.2 9.41V22.3c-.4.09-.78.09-1.2-.03-.55-.17-1-.54-1.34-1.1-.21-.36-.59-.75-.98-.73l-.1-1.1c.85-.07 1.6.53 2.03 1.26.2.33.42.52.71.61.28.08.58.04.93-.08.08-.7.4-.96.64-1.33-2.45-.36-3.42-1.66-3.81-2.69a4.32 4.32 0 0 1 .67-4.14c.02-.02.05-.08.04-.12-.42-1.25.09-2.3.1-2.4.49.14.57-.15 2.1.78l.26.16c.11.06.08.03.19.02a8.03 8.03 0 0 1 1.97-.28c.67.01 1.34.1 2 .29h.09l.07-.03c1.91-1.16 1.85-.78 2.36-.95.02.11.52 1.17.1 2.41-.05.17 1.66 1.74.71 4.26-.38 1.03-1.36 2.33-3.81 2.7.31.47.69.73.69 1.72v3.88c4.1-.99 7.2-5 7.2-9.4a9.45 9.45 0 0 0-9.4-9.42z"/>
</symbol>
</defs></svg>