<svg aria-hidden="true" style="position:absolute;width:0;height:0;overflow:hidden" xmlns="http://www.w3.org/2000/svg"><defs>
<symbol id="icon-home" viewBox="0 0 32 32"><path fill="#d31342" style="fill:var(--color1, #d31342)" d="M31.6 16.77c.58-.6.52-1.51-.13-2.04L17.17 3.06a1.88 1.88 0 0 0-2.32.02L.5 15.35a1.35 1.35 0 0 0-.07 2.03l.36.35c.6.58 1.56.65 2.15.16l1.08-.9v13.12c0 .8.7 1.45 1.56 1.45h5.59c.86 0 1.56-.65 1.56-1.45v-9.18h7.14v9.18c-.02.8.6 1.45 1.46 1.45h5.93c.86 0 1.56-.65 1.56-1.45V17.18l.66.54c.36.3 1.13.06 1.71-.54l.41-.41z"/></symbol>
<symbol id="icon-facebook" viewBox="0 0 32 32"><path fill="#fea5bb" style="fill:var(--color2, #fea5bb)" d="M16 32a16 16 0 1 0 0-32 16 16 0 0 0 0 32z"/><path fill="#fff" style="fill:var(--color3, #fff)" d="M20.45 15.98h-2.61v9.62h-3.96v-9.62H12V12.6h1.88v-2.18c0-1.57.74-4.02 4-4.02l2.92.01V9.7h-2.13c-.34 0-.83.18-.83.93v1.98h2.95l-.34 3.38z"/></symbol>
<symbol id="icon-telegram" viewBox="0 0 32 32"><path fill="#fea5bb" style="fill:var(--color2, #fea5bb)" d="M32 16a16 16 0 1 1-32 0 16 16 0 0 1 32 0z"/><path fill="#fff" style="fill:var(--color3, #fff)" d="m12.87 18.38-.32 4.16c.45 0 .65-.18.89-.4l2.13-1.9 4.41 3.02c.81.42 1.38.2 1.6-.7l2.9-12.67c.25-1.11-.44-1.55-1.23-1.28L6.22 14.7c-1.16.42-1.14 1.02-.2 1.3l4.36 1.26 10.11-5.9c.48-.3.91-.14.56.16l-8.19 6.86z"/></symbol>
<symbol id="icon-github" viewBox="0 0 32 32"><path fill="#fea5bb" style="fill:var(--color2, #fea5bb)" d="M32 16a16 16 0 1 1-32 0 16 16 0 0 1 32 0z"/><path fill="#fff" style="fill:var(--color3, #fff)" d="M16 6.59A9.45 9.45 0 0 0 6.59 16c0 4.41 3.1 8.42 7.2 9.41V22.3c-.4.09-.78.09-1.2-.03-.55-.17-1-.54-1.34-1.1-.21-.36-.59-.75-.98-.73l-.1-1.1c.85-.07 1.6.53 2.03 1.26.2.33.42.52.71.61.28.08.58.04.93-.08.08-.7.4-.96.64-1.33-2.45-.36-3.42-1.66-3.81-2.69a4.32 4.32 0 0 1 .67-4.14c.02-.02.05-.08.04-.12-.42-1.25.09-2.3.1-2.4.49.14.57-.15 2.1.78l.26.16c.11.06.08.03.19.02a8.03 8.03 0 0 1 1.97-.28c.67.01 1.34.1 2 .29h.09l.07-.03c1.91-1.16 1.85-.78 2.36-.95.02.11.52 1.17.1 2.41-.05.17 1.66 1.74.71 4.26-.38 1.03-1.36 2.33-3.81 2.7.31.47.69.73.69 1.72v3.88c4.1-.99 7.2-5 7.2-9.4a9.45 9.45 0 0 0-9.4-9.42z"/></symbol>
<symbol id="icon-vector-right" viewBox="0 0 19 32"><path fill="none" stroke="#d41443" style="stroke:var(--color1, #d41443)" stroke-linejoin="round" stroke-linecap="round" stroke-width="6.4" d="M3.2 3.2 16 16 3.2 28.8"/></symbol>
<symbol id="icon-burger" viewBox="0 0 46 32">
<path style="stroke: var(--color1, currentColor)" stroke-linejoin="miter" stroke-linecap="butt" stroke-miterlimit="4" stroke-width="2.2857" d="M0 2.286h45.714"></path>
<path style="stroke: var(--color1, currentColor)" stroke-linejoin="miter" stroke-linecap="butt" stroke-miterlimit="4" stroke-width="2.2857" d="M0 16h45.714"></path>
<path style="stroke: var(--color1, currentColor)" stroke-linejoin="miter" stroke-linecap="butt" stroke-miterlimit="4" stroke-width="2.2857" d="M0 29.714h45.714"></path>
</symbol>
<symbol id="icon-close" viewBox="0 0 32 32"><path fill="none" style="stroke:var(--color2, currentColor)" stroke-width="2" d="m2.519 2 26.963 28M2 29.481 30 2.518"/></symbol>
<symbol id="icon-close-button" viewBox="0 0 32 32"><path d="m26.667 7.303-1.97-1.97-7.808 7.808-7.808-7.808-1.97 1.97 7.808 7.808-7.808 7.808 1.97 1.97 7.808-7.808 7.808 7.808 1.97-1.97-7.808-7.808 7.808-7.808z"/></symbol>
<symbol id="icon-phone-black" viewBox="0 0 32 32"><path d="m24.882 19.774-3.268-.373a2.552 2.552 0 0 0-2.11.732l-2.368 2.368c-3.669-1.894-6.585-4.81-8.427-8.372l-.051-.108 2.382-2.377a2.552 2.552 0 0 0 .731-2.122l.001.012-.373-3.243a2.578 2.578 0 0 0-2.557-2.276H6.613c-1.454 0-2.663 1.209-2.574 2.661.683 10.987 9.47 19.762 20.444 20.444 1.452.089 2.663-1.12 2.663-2.574v-2.238a2.549 2.549 0 0 0-2.253-2.532l-.012-.001z"/></symbol>
<symbol id="icon-person-black" viewBox="0 0 32 32"><path d="M16 16a5.333 5.333 0 1 0 0-10.666A5.333 5.333 0 1 0 16 16zm0 2.667c-3.561 0-10.667 1.787-10.667 5.333v1.333c0 .732.599 1.333 1.333 1.333h18.667c.732 0 1.333-.601 1.333-1.333V24c0-3.547-7.108-5.333-10.667-5.333z"/></symbol>
<symbol id="icon-email-black" viewBox="0 0 32 32"><path d="M26.667 5.333H5.334A2.662 2.662 0 0 0 2.682 8l-.014 16c0 1.467 1.2 2.667 2.667 2.667h21.333c1.467 0 2.667-1.2 2.667-2.667V8c0-1.467-1.2-2.667-2.667-2.667zm-.534 5.668-9.426 5.892a1.343 1.343 0 0 1-1.421-.004l.006.003L5.866 11A1.133 1.133 0 1 1 7.07 9.083l-.004-.003 8.933 5.586 8.933-5.588a1.132 1.132 0 1 1 1.204 1.916l-.005.003z"/></symbol>
</defs></svg>